<svg xmlns="http://www.w3.org/2000/svg" viewBox="55 45 130 110" preserveAspectRatio="xMidYMid meet" opacity="1" aria-hidden="true" focusable="false"><g data-theme-part="back" transform="translate(0 0) translate(120 100) scale(0.52 0.52) translate(-120 -100)"><g data-visual-axis="silhouette" data-visual-value="1"><rect x="20" y="25" width="200.2" height="150" fill="#d8bc94" stroke="#a78762" stroke-width="1" /></g></g><g data-theme-part="card" transform="translate(0 0) translate(120 100) scale(0.52 0.52) translate(-120 -100)"><g data-visual-axis="palette" data-visual-value="3"><rect x="25" y="30" width="190" height="140" fill="#fff2d9" stroke="#9986a1" stroke-width="1" /></g><g data-visual-axis="landscape" data-visual-value="1" transform="translate(5 20) scale(.96 .4)"><rect x="26" y="29" width="188" height="45" fill="#9986a1" /><circle cx="180" cy="42" r="8" fill="#f1d2a2" /><path d="M26 74L74 37L120 74M76 74L137 32L192 74Z" fill="#697b74" /><path d="M119 48L137 32L154 46L141 43L133 49Z" fill="#f1ead9" /></g></g><g data-theme-part="front" transform="translate(0 0) translate(120 100) scale(0.52 0.52) translate(-120 -100)"><path d="M20 25L120 90L220 25V175H20Z" fill="#ecd6b5" stroke="#ab8b66" stroke-width="1" /><path d="M20 175L60 143M220 175L180 143" fill="none" stroke="#c2a582" stroke-width=".7" /><g data-visual-axis="postage" data-visual-value="1"><g data-visual-axis="orientation" data-visual-value="2" transform="rotate(-1 120 105)"><ellipse cx="120" cy="105" rx="5.5" ry="4.5" fill="#9986a1" /></g></g></g><g data-theme-part="flap" transform="translate(0 36) translate(120 25) scale(0.52 -0.52) translate(-120 -25)"><g data-visual-axis="envelope" data-visual-value="3"><path d="M20 25L120 -44L220 25Z" fill="#e7cfae" stroke="#ab8b66" stroke-width="1" /></g></g><rect x="86" y="104" width="68" height="30" fill="none" data-theme-content-area="content" /></svg>
