<svg xmlns="http://www.w3.org/2000/svg" viewBox="0 0 200 160" preserveAspectRatio="xMidYMid meet" aria-hidden="true" focusable="false" class="theme-object" data-variant-silhouette="0" data-variant-palette="1" data-variant-orientation="6" data-variant-shore="4" data-variant-elevation="0" data-variant-islets="1" data-visual-axis="orientation" data-visual-value="6" data-visual-scope="self"><defs><clipPath id="land"><path d="M18 90C28 53 62 39 89 45C112 24 160 39 174 76C185 108 150 135 119 132C89 151 38 132 18 102C15 98 15 94 18 90Z" transform="translate(18.000000000000004 14.400000000000004) scale(0.82)"></path></clipPath></defs><g data-visual-axis="palette" data-visual-value="1"><path data-visual-axis="silhouette" data-visual-value="0" data-visual-scope="self" d="M18 90C28 53 62 39 89 45C112 24 160 39 174 76C185 108 150 135 119 132C89 151 38 132 18 102C15 98 15 94 18 90Z" fill="rgb(232, 201, 130)" stroke="rgb(49, 135, 164)" stroke-width="6"></path><g data-visual-axis="shore" data-visual-value="4" data-visual-scope="self" transform="translate(18.000000000000004 14.400000000000004) scale(0.82)"><path d="M18 90C28 53 62 39 89 45C112 24 160 39 174 76C185 108 150 135 119 132C89 151 38 132 18 102C15 98 15 94 18 90Z" fill="rgb(62, 149, 97)"></path></g><g class="theme-detail" fill="#e8c982" opacity=".9"><circle cx="35" cy="117" r="4"></circle><circle cx="45" cy="126" r="3"></circle><circle cx="157" cy="55" r="4"></circle><circle cx="168" cy="63" r="3"></circle></g><g clip-path="url(#land)"><g data-visual-axis="elevation" data-visual-value="0"><path class="theme-detail" d="M60 103C83 88 122 91 145 108" fill="none" stroke="#9dc477" stroke-width="5" stroke-linecap="round"></path></g></g><g data-visual-axis="islets" data-visual-value="1"><ellipse cx="166" cy="124" rx="9" ry="6" fill="#e8c982" stroke="#3187a4" stroke-width="3"></ellipse><ellipse cx="166" cy="124" rx="6" ry="4" fill="#3e9561"></ellipse></g></g><rect data-theme-content-area="content" x="48" y="52" width="104" height="64" fill="none" stroke="none"></rect></svg>
