<svg xmlns="http://www.w3.org/2000/svg" viewBox="0 0 200 160" preserveAspectRatio="xMidYMid meet" aria-hidden="true" focusable="false" class="theme-object" data-variant-silhouette="2" data-variant-palette="3" data-variant-orientation="9" data-variant-shore="1" data-variant-elevation="5" data-variant-islets="2" data-visual-axis="orientation" data-visual-value="9" data-visual-scope="self"><defs><clipPath id="land"><path d="M20 95C19 65 48 43 77 47C98 27 140 34 158 61C184 70 188 107 163 122C140 146 101 137 82 133C51 144 22 124 20 95Z" transform="translate(19.999999999999996 15.999999999999996) scale(0.8)" /></clipPath></defs><g data-visual-axis="palette" data-visual-value="3"><path data-visual-axis="silhouette" data-visual-value="2" data-visual-scope="self" d="M20 95C19 65 48 43 77 47C98 27 140 34 158 61C184 70 188 107 163 122C140 146 101 137 82 133C51 144 22 124 20 95Z" fill="rgb(223, 193, 123)" stroke="rgb(43, 120, 151)" stroke-width="6" /><g data-visual-axis="shore" data-visual-value="1" data-visual-scope="self" transform="translate(19.999999999999996 15.999999999999996) scale(0.8)"><path d="M20 95C19 65 48 43 77 47C98 27 140 34 158 61C184 70 188 107 163 122C140 146 101 137 82 133C51 144 22 124 20 95Z" fill="rgb(71, 139, 87)" /></g><g clip-path="url(#land)"><g data-visual-axis="elevation" data-visual-value="5"><path class="theme-detail" d="M55 101C81 90 123 91 147 103" fill="none" stroke="#2d724d" stroke-width="2.4" stroke-linecap="round" stroke-opacity=".36" /></g></g><g data-visual-axis="islets" data-visual-value="2"><ellipse cx="164" cy="126" rx="9" ry="6" fill="#dfc17b" stroke="#2b7897" stroke-width="3" /><ellipse cx="34" cy="57" rx="7" ry="5" fill="#478b57" stroke="#dfc17b" stroke-width="3" /></g></g><rect data-theme-content-area="content" x="44" y="60" width="112" height="64" fill="none" stroke="none" /></svg>
