<svg xmlns="http://www.w3.org/2000/svg" viewBox="0 0 3000 3000" preserveAspectRatio="none" aria-hidden="true" focusable="false"><circle cx="511.0" cy="2590.2" r="1.2" fill="#ddd1ff" opacity="0.63"/><circle cx="2943.4" cy="175.7" r="2.5" fill="#ddd1ff" opacity="0.73"/><circle cx="2456.5" cy="710.5" r="1.2" fill="#ddd1ff" opacity="0.70"/><circle cx="1142.7" cy="2632.1" r="3.4" fill="#ffffff" opacity="0.77"/><circle cx="2252.8" cy="321.7" r="1.8" fill="#ddd1ff" opacity="0.54"/><circle cx="1209.9" cy="1827.3" r="1.2" fill="#ffe5a6" opacity="0.83"/><circle cx="2954.3" cy="2462.4" r="1.8" fill="#ffe5a6" opacity="0.93"/><circle cx="1424.1" cy="2720.1" r="1.2" fill="#b7d9ff" opacity="0.87"/><circle cx="332.8" cy="1254.1" r="1.2" fill="#ffffff" opacity="0.58"/><circle cx="93.6" cy="1115.8" r="1.2" fill="#b7d9ff" opacity="0.65"/><circle cx="1329.2" cy="2309.0" r="3.4" fill="#ffffff" opacity="0.67"/><circle cx="1426.4" cy="2178.2" r="1.8" fill="#ffffff" opacity="0.62"/><circle cx="659.1" cy="560.1" r="1.2" fill="#ffe5a6" opacity="0.57"/><circle cx="2795.6" cy="70.5" r="1.2" fill="#ffffff" opacity="0.58"/><circle cx="1976.8" cy="2039.6" r="3.4" fill="#b7d9ff" opacity="0.52"/><circle cx="2558.7" cy="1195.0" r="1.2" fill="#ddd1ff" opacity="0.67"/><circle cx="1091.6" cy="1752.1" r="1.2" fill="#ffe5a6" opacity="0.73"/><circle cx="2711.1" cy="1328.3" r="2.5" fill="#ffffff" opacity="0.72"/><circle cx="49.9" cy="1481.5" r="1.2" fill="#ffffff" opacity="0.62"/><circle cx="183.1" cy="2927.7" r="1.8" fill="#ffffff" opacity="0.75"/><circle cx="2614.3" cy="2545.1" r="1.8" fill="#ffe5a6" opacity="0.70"/><circle cx="2832.6" cy="803.6" r="2.5" fill="#ffe5a6" opacity="0.96"/><circle cx="366.6" cy="1748.5" r="2.5" fill="#b7d9ff" opacity="0.84"/><circle cx="2872.5" cy="569.1" r="1.2" fill="#ddd1ff" opacity="0.63"/><circle cx="1590.4" cy="2595.5" r="1.2" fill="#b7d9ff" opacity="0.77"/><circle cx="2592.9" cy="1690.6" r="2.5" fill="#ffffff" opacity="0.59"/><circle cx="2101.1" cy="2402.0" r="1.2" fill="#ffffff" opacity="0.75"/><circle cx="265.6" cy="728.0" r="1.2" fill="#b7d9ff" opacity="0.62"/><circle cx="1394.3" cy="2767.9" r="1.2" fill="#ffe5a6" opacity="0.56"/><circle cx="531.9" cy="851.6" r="1.8" fill="#b7d9ff" opacity="0.94"/><circle cx="2402.4" cy="691.4" r="1.8" fill="#ddd1ff" opacity="0.86"/><circle cx="503.7" cy="2721.9" r="2.5" fill="#ddd1ff" opacity="0.55"/><circle cx="1920.9" cy="191.6" r="1.2" fill="#ddd1ff" opacity="0.95"/><circle cx="2728.6" cy="194.6" r="1.8" fill="#ddd1ff" opacity="0.77"/><circle cx="2267.5" cy="2016.9" r="1.2" fill="#ffe5a6" opacity="0.89"/><circle cx="1230.8" cy="1026.6" r="1.2" fill="#ffe5a6" opacity="0.67"/><circle cx="1609.2" cy="807.8" r="1.2" fill="#ffe5a6" opacity="0.88"/><circle cx="411.5" cy="1432.3" r="1.2" fill="#ffe5a6" opacity="0.94"/><circle cx="2274.9" cy="2227.6" r="1.2" fill="#ffe5a6" opacity="0.58"/><circle cx="551.6" cy="821.6" r="1.8" fill="#ddd1ff" opacity="0.89"/><circle cx="2772.1" cy="375.6" r="1.2" fill="#ffffff" opacity="0.64"/><circle cx="1859.2" cy="1292.2" r="1.8" fill="#ddd1ff" opacity="0.54"/><circle cx="2131.9" cy="480.5" r="1.8" fill="#b7d9ff" opacity="0.78"/><circle cx="1510.0" cy="781.6" r="1.8" fill="#ffffff" opacity="0.96"/><circle cx="1704.4" cy="2765.4" r="1.2" fill="#ddd1ff" opacity="0.66"/><circle cx="2669.1" cy="718.6" r="1.2" fill="#ffffff" opacity="0.60"/><circle cx="1420.6" cy="730.2" r="1.2" fill="#ddd1ff" opacity="0.91"/><circle cx="1152.9" cy="1529.9" r="1.2" fill="#b7d9ff" opacity="0.87"/><circle cx="2558.6" cy="719.6" r="2.5" fill="#ffe5a6" opacity="0.87"/><circle cx="920.2" cy="534.9" r="1.2" fill="#ffffff" opacity="0.68"/><circle cx="1016.7" cy="2136.7" r="2.5" fill="#ffe5a6" opacity="0.72"/><circle cx="1165.6" cy="2872.3" r="1.2" fill="#ddd1ff" opacity="0.70"/><circle cx="2179.8" cy="1585.8" r="1.2" fill="#ffffff" opacity="0.70"/><circle cx="976.6" cy="602.8" r="1.8" fill="#ffe5a6" opacity="0.66"/><circle cx="2168.5" cy="361.5" r="1.2" fill="#b7d9ff" opacity="0.83"/><circle cx="2161.2" cy="1638.2" r="2.5" fill="#ffffff" opacity="0.85"/><path d="M2152.7 1638.2H2169.7M2161.2 1629.7V1646.7" stroke="#ffffff" stroke-width="1.2" stroke-opacity="0.85" stroke-linecap="round"/><circle cx="1880.7" cy="863.9" r="1.8" fill="#ffe5a6" opacity="0.63"/><circle cx="1512.1" cy="2385.0" r="1.8" fill="#b7d9ff" opacity="0.77"/><circle cx="145.4" cy="1551.0" r="2.5" fill="#b7d9ff" opacity="0.71"/><circle cx="526.8" cy="689.2" r="1.2" fill="#ffe5a6" opacity="0.93"/><circle cx="1270.0" cy="2822.0" r="1.2" fill="#ffe5a6" opacity="0.58"/><circle cx="2534.5" cy="918.9" r="1.2" fill="#b7d9ff" opacity="0.88"/><circle cx="495.4" cy="1275.1" r="1.2" fill="#ddd1ff" opacity="0.93"/><circle cx="474.1" cy="2308.3" r="1.8" fill="#ffffff" opacity="0.55"/><circle cx="2836.5" cy="1839.0" r="1.2" fill="#b7d9ff" opacity="0.92"/><circle cx="445.6" cy="2667.2" r="1.2" fill="#ffffff" opacity="0.78"/><circle cx="1068.5" cy="1770.2" r="1.2" fill="#ffffff" opacity="0.62"/><circle cx="460.6" cy="1749.6" r="1.2" fill="#ffe5a6" opacity="0.70"/><circle cx="2388.4" cy="835.0" r="2.5" fill="#ddd1ff" opacity="0.95"/><circle cx="1039.7" cy="187.8" r="1.8" fill="#b7d9ff" opacity="0.72"/><circle cx="2519.1" cy="1593.3" r="1.8" fill="#ffffff" opacity="0.62"/><circle cx="1528.8" cy="2954.2" r="2.5" fill="#ffe5a6" opacity="0.94"/><circle cx="2649.9" cy="1996.0" r="1.2" fill="#ffffff" opacity="0.61"/><circle cx="2007.6" cy="2710.4" r="1.2" fill="#ffe5a6" opacity="0.84"/><circle cx="2276.7" cy="698.1" r="1.8" fill="#b7d9ff" opacity="0.90"/><circle cx="1577.3" cy="297.8" r="1.2" fill="#ddd1ff" opacity="0.90"/><circle cx="2703.5" cy="1516.7" r="1.2" fill="#ddd1ff" opacity="0.54"/><circle cx="178.4" cy="2895.3" r="1.2" fill="#ddd1ff" opacity="0.72"/><circle cx="1411.3" cy="1874.3" r="1.2" fill="#ffffff" opacity="0.94"/><circle cx="117.9" cy="2671.0" r="1.2" fill="#ffe5a6" opacity="0.79"/><circle cx="2154.7" cy="882.8" r="1.8" fill="#ddd1ff" opacity="0.94"/><circle cx="485.9" cy="1990.9" r="1.2" fill="#ffe5a6" opacity="0.88"/><circle cx="1597.6" cy="2965.5" r="2.5" fill="#ffe5a6" opacity="0.62"/><circle cx="965.8" cy="582.9" r="3.4" fill="#b7d9ff" opacity="0.89"/><circle cx="1891.2" cy="2144.2" r="1.8" fill="#ddd1ff" opacity="0.86"/><circle cx="1277.6" cy="2291.7" r="2.5" fill="#b7d9ff" opacity="0.87"/><circle cx="2509.7" cy="2200.2" r="1.2" fill="#b7d9ff" opacity="0.69"/><circle cx="2816.8" cy="496.1" r="3.4" fill="#ffffff" opacity="0.75"/><circle cx="1205.1" cy="1039.7" r="1.8" fill="#ffffff" opacity="0.57"/><circle cx="2943.4" cy="1815.9" r="2.5" fill="#ddd1ff" opacity="0.67"/><circle cx="513.4" cy="1759.4" r="1.2" fill="#ffe5a6" opacity="0.88"/><circle cx="1189.7" cy="2444.6" r="1.2" fill="#ffffff" opacity="0.78"/><circle cx="48.0" cy="989.3" r="1.8" fill="#ddd1ff" opacity="0.79"/><circle cx="740.3" cy="2185.7" r="1.8" fill="#ddd1ff" opacity="0.57"/><circle cx="1487.3" cy="969.7" r="1.8" fill="#ddd1ff" opacity="0.54"/><circle cx="117.5" cy="366.0" r="1.2" fill="#ffffff" opacity="0.76"/><circle cx="1389.9" cy="399.7" r="1.8" fill="#ffe5a6" opacity="0.69"/><circle cx="511.2" cy="875.9" r="1.8" fill="#ddd1ff" opacity="0.77"/><circle cx="1579.1" cy="2022.4" r="3.4" fill="#ddd1ff" opacity="0.58"/><circle cx="54.7" cy="2910.4" r="1.2" fill="#b7d9ff" opacity="0.58"/><circle cx="2829.4" cy="682.1" r="2.5" fill="#ffe5a6" opacity="0.95"/><circle cx="1551.8" cy="2763.4" r="1.2" fill="#ffe5a6" opacity="0.86"/><circle cx="2312.3" cy="529.4" r="1.2" fill="#ddd1ff" opacity="0.56"/><circle cx="2062.1" cy="1450.4" r="1.2" fill="#b7d9ff" opacity="0.71"/><circle cx="304.9" cy="689.3" r="1.2" fill="#ffe5a6" opacity="0.65"/><circle cx="2108.0" cy="754.0" r="1.2" fill="#ffffff" opacity="0.56"/><circle cx="603.0" cy="1741.9" r="1.8" fill="#b7d9ff" opacity="0.61"/><circle cx="1526.8" cy="772.8" r="1.2" fill="#b7d9ff" opacity="0.80"/><circle cx="2859.4" cy="662.4" r="1.8" fill="#ffe5a6" opacity="0.94"/><circle cx="1668.2" cy="1947.0" r="1.2" fill="#ddd1ff" opacity="0.56"/><circle cx="274.7" cy="591.1" r="1.2" fill="#ffe5a6" opacity="0.96"/><path d="M270.6 591.1H278.7M274.7 587.0V595.2" stroke="#ffe5a6" stroke-width="1.2" stroke-opacity="0.96" stroke-linecap="round"/><circle cx="2955.0" cy="1125.4" r="1.2" fill="#ffe5a6" opacity="0.86"/><circle cx="600.6" cy="2378.5" r="1.2" fill="#ffe5a6" opacity="0.81"/><circle cx="2596.9" cy="1124.4" r="1.2" fill="#ffe5a6" opacity="0.87"/><circle cx="1901.5" cy="484.8" r="1.2" fill="#ddd1ff" opacity="0.57"/><circle cx="600.7" cy="1814.3" r="2.5" fill="#ffe5a6" opacity="0.77"/><circle cx="305.7" cy="2225.1" r="2.5" fill="#ffffff" opacity="0.89"/><circle cx="199.8" cy="1948.9" r="1.2" fill="#ffffff" opacity="0.57"/><circle cx="2461.7" cy="2310.9" r="1.8" fill="#b7d9ff" opacity="0.52"/><circle cx="2714.1" cy="1782.8" r="1.2" fill="#ffffff" opacity="0.50"/><circle cx="2106.0" cy="583.9" r="2.5" fill="#ffe5a6" opacity="0.56"/><circle cx="1457.0" cy="1228.5" r="1.8" fill="#ffffff" opacity="0.83"/><circle cx="2575.3" cy="196.3" r="1.2" fill="#b7d9ff" opacity="0.62"/><circle cx="2582.7" cy="657.5" r="1.2" fill="#ffffff" opacity="0.51"/><circle cx="2972.3" cy="1175.3" r="2.5" fill="#ffe5a6" opacity="0.96"/><circle cx="631.5" cy="2673.7" r="1.2" fill="#ffffff" opacity="0.91"/><circle cx="1572.3" cy="1913.3" r="1.2" fill="#ffffff" opacity="0.50"/><circle cx="635.4" cy="2086.1" r="2.5" fill="#b7d9ff" opacity="0.78"/><circle cx="1868.2" cy="609.9" r="1.2" fill="#ffffff" opacity="0.71"/><circle cx="1430.6" cy="1573.9" r="1.2" fill="#ddd1ff" opacity="0.88"/><circle cx="163.0" cy="2472.0" r="1.8" fill="#ffffff" opacity="0.71"/><circle cx="1293.8" cy="1213.8" r="2.5" fill="#ffffff" opacity="0.88"/><circle cx="652.4" cy="487.2" r="1.2" fill="#ffffff" opacity="0.64"/><circle cx="839.1" cy="113.9" r="1.2" fill="#ddd1ff" opacity="0.68"/><circle cx="808.8" cy="1117.1" r="1.2" fill="#ffffff" opacity="0.62"/><circle cx="332.8" cy="2171.3" r="1.2" fill="#b7d9ff" opacity="0.79"/><circle cx="490.4" cy="1125.0" r="1.2" fill="#ffe5a6" opacity="0.83"/><circle cx="127.2" cy="714.7" r="1.8" fill="#ffe5a6" opacity="0.65"/><circle cx="2011.6" cy="1978.0" r="1.2" fill="#ffffff" opacity="0.73"/><circle cx="1087.3" cy="2786.7" r="1.2" fill="#b7d9ff" opacity="0.60"/><circle cx="2503.9" cy="330.8" r="1.2" fill="#ffffff" opacity="0.97"/><circle cx="2451.3" cy="1545.5" r="1.8" fill="#ddd1ff" opacity="0.53"/><circle cx="455.3" cy="1459.4" r="2.5" fill="#ffe5a6" opacity="0.70"/><circle cx="2131.0" cy="1405.5" r="1.2" fill="#ffe5a6" opacity="0.67"/><circle cx="129.7" cy="320.5" r="1.2" fill="#ffe5a6" opacity="0.65"/><circle cx="281.6" cy="1401.9" r="1.8" fill="#b7d9ff" opacity="0.90"/><circle cx="1575.5" cy="663.4" r="2.5" fill="#ffffff" opacity="0.63"/><circle cx="1900.2" cy="60.6" r="1.2" fill="#ffe5a6" opacity="0.82"/><circle cx="1144.1" cy="2761.8" r="1.2" fill="#ddd1ff" opacity="0.87"/><circle cx="1491.3" cy="1484.4" r="2.5" fill="#ddd1ff" opacity="0.51"/><circle cx="1049.0" cy="415.2" r="1.2" fill="#b7d9ff" opacity="0.82"/><circle cx="300.3" cy="1392.2" r="1.2" fill="#b7d9ff" opacity="0.67"/><circle cx="1304.3" cy="1213.9" r="1.8" fill="#b7d9ff" opacity="0.54"/><circle cx="2781.0" cy="1678.9" r="1.2" fill="#ffe5a6" opacity="0.97"/><circle cx="2809.7" cy="1059.5" r="1.2" fill="#ddd1ff" opacity="0.98"/><circle cx="1272.8" cy="150.3" r="1.8" fill="#ddd1ff" opacity="0.75"/><circle cx="1042.0" cy="439.0" r="1.2" fill="#ddd1ff" opacity="0.83"/><circle cx="2325.2" cy="2481.0" r="1.2" fill="#ffe5a6" opacity="0.59"/><circle cx="432.3" cy="454.1" r="1.2" fill="#ddd1ff" opacity="0.80"/><circle cx="1142.7" cy="1819.7" r="2.5" fill="#ffffff" opacity="0.68"/><circle cx="859.2" cy="163.1" r="1.8" fill="#ddd1ff" opacity="0.60"/><circle cx="2152.6" cy="146.9" r="2.5" fill="#ddd1ff" opacity="0.96"/><circle cx="1561.4" cy="1430.4" r="1.2" fill="#ffe5a6" opacity="0.63"/><circle cx="944.8" cy="2708.1" r="2.5" fill="#b7d9ff" opacity="0.64"/><circle cx="292.2" cy="995.1" r="1.2" fill="#ddd1ff" opacity="0.80"/><circle cx="1488.7" cy="1083.9" r="1.8" fill="#ddd1ff" opacity="0.66"/><circle cx="1223.6" cy="1138.8" r="1.8" fill="#ddd1ff" opacity="0.71"/><circle cx="1433.0" cy="1893.4" r="3.4" fill="#b7d9ff" opacity="0.54"/><circle cx="1466.7" cy="340.5" r="1.2" fill="#b7d9ff" opacity="0.75"/><circle cx="1025.2" cy="2202.5" r="1.8" fill="#ffe5a6" opacity="0.70"/><circle cx="507.1" cy="2690.6" r="1.2" fill="#ffffff" opacity="0.97"/><circle cx="1095.9" cy="2384.1" r="3.4" fill="#ffffff" opacity="0.64"/><circle cx="521.6" cy="1897.9" r="1.8" fill="#ffffff" opacity="0.55"/><circle cx="2370.9" cy="2578.7" r="1.8" fill="#ddd1ff" opacity="0.66"/><circle cx="1979.6" cy="2134.6" r="1.2" fill="#ddd1ff" opacity="0.54"/><circle cx="480.8" cy="2091.1" r="1.2" fill="#b7d9ff" opacity="0.82"/><circle cx="743.7" cy="310.7" r="2.5" fill="#ffe5a6" opacity="0.87"/><circle cx="1486.5" cy="2745.8" r="1.2" fill="#b7d9ff" opacity="0.87"/><circle cx="935.2" cy="779.5" r="2.5" fill="#ffffff" opacity="0.77"/><circle cx="174.9" cy="1652.6" r="3.4" fill="#ddd1ff" opacity="0.80"/><circle cx="822.0" cy="1586.8" r="1.2" fill="#b7d9ff" opacity="0.92"/><circle cx="1527.8" cy="1429.5" r="1.8" fill="#b7d9ff" opacity="0.88"/><circle cx="1736.4" cy="1075.3" r="1.2" fill="#ffe5a6" opacity="0.95"/><circle cx="1250.8" cy="117.8" r="1.8" fill="#ffffff" opacity="0.64"/><circle cx="2683.5" cy="2711.1" r="1.8" fill="#b7d9ff" opacity="0.68"/><circle cx="665.0" cy="1653.9" r="1.8" fill="#ffffff" opacity="0.64"/><circle cx="493.4" cy="1129.1" r="2.5" fill="#ddd1ff" opacity="0.94"/><circle cx="1984.6" cy="2852.1" r="1.8" fill="#b7d9ff" opacity="0.58"/><circle cx="2399.0" cy="2528.7" r="1.8" fill="#ffffff" opacity="0.84"/><circle cx="541.3" cy="148.9" r="1.2" fill="#b7d9ff" opacity="0.78"/><circle cx="1985.1" cy="2214.7" r="1.8" fill="#ddd1ff" opacity="0.90"/><circle cx="1364.2" cy="855.0" r="1.8" fill="#ffffff" opacity="0.97"/><circle cx="787.3" cy="98.2" r="1.8" fill="#ffffff" opacity="0.56"/><circle cx="2229.0" cy="2316.0" r="1.2" fill="#b7d9ff" opacity="0.56"/><circle cx="2394.1" cy="153.7" r="1.8" fill="#ffffff" opacity="0.96"/><circle cx="1124.2" cy="833.0" r="1.8" fill="#ddd1ff" opacity="0.83"/><circle cx="2917.8" cy="1631.8" r="1.2" fill="#ddd1ff" opacity="0.89"/><circle cx="1201.4" cy="433.2" r="1.2" fill="#ffe5a6" opacity="0.53"/><circle cx="2921.5" cy="567.0" r="2.5" fill="#ffffff" opacity="0.53"/><circle cx="666.5" cy="166.5" r="1.8" fill="#ffffff" opacity="0.74"/><circle cx="158.6" cy="1329.6" r="1.8" fill="#ffffff" opacity="0.55"/><circle cx="1795.8" cy="2116.5" r="1.2" fill="#ffe5a6" opacity="0.98"/><circle cx="1588.7" cy="1685.8" r="1.2" fill="#ddd1ff" opacity="0.82"/><circle cx="922.6" cy="860.6" r="1.8" fill="#b7d9ff" opacity="0.62"/><circle cx="2629.0" cy="2369.1" r="3.4" fill="#b7d9ff" opacity="0.95"/><circle cx="2173.1" cy="2744.1" r="1.8" fill="#ffffff" opacity="0.51"/><circle cx="1493.0" cy="1988.3" r="1.2" fill="#ffffff" opacity="0.79"/><circle cx="891.6" cy="1986.5" r="1.2" fill="#ddd1ff" opacity="0.77"/><circle cx="2610.6" cy="2827.2" r="1.2" fill="#ffe5a6" opacity="0.72"/><circle cx="2053.6" cy="2371.8" r="2.5" fill="#ffffff" opacity="0.81"/><circle cx="1156.6" cy="799.4" r="1.8" fill="#ddd1ff" opacity="0.61"/><circle cx="1227.9" cy="555.8" r="1.2" fill="#ffffff" opacity="0.58"/><circle cx="544.0" cy="779.1" r="1.2" fill="#ddd1ff" opacity="0.69"/><circle cx="104.2" cy="120.7" r="1.2" fill="#b7d9ff" opacity="0.63"/><circle cx="220.5" cy="2859.5" r="1.8" fill="#b7d9ff" opacity="0.83"/><circle cx="509.7" cy="557.6" r="2.5" fill="#b7d9ff" opacity="0.64"/><circle cx="1399.1" cy="2379.0" r="1.8" fill="#ffe5a6" opacity="0.72"/><circle cx="1191.8" cy="1471.7" r="3.4" fill="#b7d9ff" opacity="0.58"/><circle cx="2432.6" cy="921.6" r="1.2" fill="#ffe5a6" opacity="0.63"/><circle cx="2240.7" cy="2617.5" r="1.8" fill="#ddd1ff" opacity="0.58"/><circle cx="467.7" cy="2161.0" r="2.5" fill="#b7d9ff" opacity="0.71"/><circle cx="1298.2" cy="434.5" r="1.2" fill="#ffe5a6" opacity="0.53"/><path d="M1294.2 434.5H1302.3M1298.2 430.5V438.6" stroke="#ffe5a6" stroke-width="1.2" stroke-opacity="0.53" stroke-linecap="round"/><circle cx="2959.2" cy="2833.6" r="1.8" fill="#ddd1ff" opacity="0.90"/><circle cx="2843.3" cy="866.8" r="2.5" fill="#b7d9ff" opacity="0.56"/><circle cx="1109.1" cy="1252.0" r="1.2" fill="#ffffff" opacity="0.91"/><circle cx="2869.5" cy="2205.6" r="1.2" fill="#ddd1ff" opacity="0.89"/><circle cx="346.3" cy="1514.3" r="1.2" fill="#b7d9ff" opacity="0.76"/><circle cx="1125.7" cy="452.2" r="1.8" fill="#ddd1ff" opacity="0.60"/><circle cx="2029.0" cy="2224.5" r="1.2" fill="#b7d9ff" opacity="0.86"/><circle cx="2245.4" cy="1969.7" r="3.4" fill="#ffe5a6" opacity="0.60"/><circle cx="2041.5" cy="1593.3" r="1.2" fill="#ffffff" opacity="0.53"/><circle cx="1413.5" cy="2816.5" r="1.2" fill="#ddd1ff" opacity="0.67"/><circle cx="864.9" cy="2037.5" r="2.5" fill="#b7d9ff" opacity="0.80"/><circle cx="1841.8" cy="642.9" r="1.8" fill="#ddd1ff" opacity="0.86"/><circle cx="1003.2" cy="1957.8" r="2.5" fill="#b7d9ff" opacity="0.71"/><circle cx="1849.3" cy="1868.6" r="1.8" fill="#b7d9ff" opacity="0.65"/><circle cx="2631.3" cy="757.8" r="1.8" fill="#ffffff" opacity="0.53"/><circle cx="2405.5" cy="836.0" r="1.8" fill="#ffffff" opacity="0.66"/><circle cx="1770.2" cy="53.8" r="3.4" fill="#b7d9ff" opacity="0.61"/><circle cx="1015.5" cy="136.0" r="2.5" fill="#ffe5a6" opacity="0.63"/><circle cx="2943.2" cy="2319.4" r="1.2" fill="#b7d9ff" opacity="0.70"/><circle cx="1543.1" cy="1152.8" r="1.2" fill="#ddd1ff" opacity="0.83"/><circle cx="880.6" cy="328.5" r="1.2" fill="#b7d9ff" opacity="0.65"/><circle cx="281.7" cy="161.5" r="1.2" fill="#ddd1ff" opacity="0.91"/><circle cx="263.7" cy="802.8" r="1.8" fill="#ddd1ff" opacity="0.71"/><circle cx="2046.3" cy="1901.5" r="1.2" fill="#ddd1ff" opacity="0.58"/><circle cx="2089.8" cy="1790.4" r="1.2" fill="#ffffff" opacity="0.58"/><circle cx="2462.4" cy="2955.4" r="1.2" fill="#ffffff" opacity="0.87"/><circle cx="938.4" cy="139.4" r="1.2" fill="#ddd1ff" opacity="0.92"/><circle cx="1463.4" cy="1663.0" r="1.2" fill="#b7d9ff" opacity="0.89"/><circle cx="1700.1" cy="136.6" r="1.2" fill="#ffffff" opacity="0.61"/><circle cx="2185.4" cy="2796.4" r="1.2" fill="#ffffff" opacity="0.95"/><circle cx="53.3" cy="1913.9" r="1.2" fill="#ddd1ff" opacity="0.62"/><circle cx="487.0" cy="1069.1" r="2.5" fill="#b7d9ff" opacity="0.94"/><circle cx="1128.0" cy="2688.1" r="2.5" fill="#ddd1ff" opacity="0.90"/><circle cx="1069.9" cy="1321.1" r="1.2" fill="#ddd1ff" opacity="0.93"/><circle cx="339.2" cy="2942.1" r="1.2" fill="#b7d9ff" opacity="0.78"/><circle cx="2165.7" cy="2618.0" r="1.2" fill="#b7d9ff" opacity="0.90"/><circle cx="2511.0" cy="2203.7" r="1.8" fill="#b7d9ff" opacity="0.79"/><circle cx="2496.2" cy="2455.3" r="2.5" fill="#b7d9ff" opacity="0.83"/><circle cx="1343.8" cy="86.4" r="1.2" fill="#ffe5a6" opacity="0.57"/><circle cx="774.3" cy="2179.6" r="1.2" fill="#b7d9ff" opacity="0.59"/><circle cx="718.9" cy="921.4" r="1.2" fill="#ddd1ff" opacity="0.80"/><circle cx="796.6" cy="2464.9" r="1.2" fill="#b7d9ff" opacity="0.79"/><circle cx="344.4" cy="2103.1" r="1.8" fill="#b7d9ff" opacity="0.61"/><circle cx="2121.7" cy="942.9" r="2.5" fill="#ddd1ff" opacity="0.60"/><circle cx="2297.3" cy="1619.8" r="1.8" fill="#ffe5a6" opacity="0.79"/><circle cx="914.9" cy="2388.0" r="2.5" fill="#b7d9ff" opacity="0.78"/><circle cx="2716.9" cy="2274.8" r="1.8" fill="#ddd1ff" opacity="0.55"/><circle cx="1076.0" cy="207.5" r="1.2" fill="#ffe5a6" opacity="0.53"/><circle cx="2195.2" cy="1608.4" r="1.2" fill="#ddd1ff" opacity="0.96"/><circle cx="2736.5" cy="1859.3" r="1.2" fill="#b7d9ff" opacity="0.84"/><circle cx="2161.7" cy="2494.7" r="2.5" fill="#ffffff" opacity="0.97"/><circle cx="906.5" cy="612.5" r="1.8" fill="#ffe5a6" opacity="0.59"/><circle cx="2414.8" cy="1747.0" r="2.5" fill="#b7d9ff" opacity="0.95"/><circle cx="63.3" cy="748.8" r="1.8" fill="#ddd1ff" opacity="0.83"/><circle cx="2468.2" cy="1966.5" r="2.5" fill="#ddd1ff" opacity="0.84"/><path d="M2459.7 1966.5H2476.7M2468.2 1958.0V1975.0" stroke="#ddd1ff" stroke-width="1.2" stroke-opacity="0.84" stroke-linecap="round"/><circle cx="1350.5" cy="2314.7" r="1.2" fill="#b7d9ff" opacity="0.81"/><circle cx="296.1" cy="1194.5" r="2.5" fill="#ddd1ff" opacity="0.62"/><circle cx="2702.0" cy="560.0" r="1.2" fill="#ffe5a6" opacity="0.66"/><circle cx="1615.1" cy="467.2" r="1.8" fill="#ffe5a6" opacity="0.77"/><circle cx="2860.1" cy="176.2" r="1.2" fill="#ffffff" opacity="0.77"/><circle cx="625.9" cy="1027.1" r="1.2" fill="#ddd1ff" opacity="0.65"/><circle cx="2317.8" cy="2132.7" r="1.2" fill="#ffffff" opacity="0.93"/><circle cx="1534.5" cy="1277.8" r="1.2" fill="#b7d9ff" opacity="0.55"/><circle cx="1266.8" cy="1652.2" r="1.8" fill="#ffffff" opacity="0.59"/><circle cx="2606.9" cy="510.1" r="1.2" fill="#ffe5a6" opacity="0.84"/><circle cx="1370.8" cy="233.3" r="1.2" fill="#ffe5a6" opacity="0.58"/><circle cx="689.3" cy="2733.8" r="2.5" fill="#b7d9ff" opacity="0.87"/><circle cx="1426.8" cy="2766.8" r="1.2" fill="#b7d9ff" opacity="0.92"/><circle cx="323.0" cy="2241.0" r="1.2" fill="#ffffff" opacity="0.74"/><circle cx="1433.4" cy="914.7" r="1.8" fill="#ddd1ff" opacity="0.84"/><circle cx="2394.6" cy="1478.2" r="1.8" fill="#ddd1ff" opacity="0.93"/><circle cx="1468.0" cy="1210.0" r="1.8" fill="#ffffff" opacity="0.51"/><circle cx="1619.0" cy="864.6" r="1.2" fill="#ffffff" opacity="0.94"/><circle cx="846.6" cy="1863.6" r="1.2" fill="#b7d9ff" opacity="0.68"/><circle cx="738.7" cy="604.9" r="1.2" fill="#b7d9ff" opacity="0.76"/><circle cx="301.1" cy="1334.9" r="1.2" fill="#ddd1ff" opacity="0.74"/><circle cx="1404.6" cy="1469.4" r="1.2" fill="#ddd1ff" opacity="0.56"/><circle cx="503.2" cy="2655.7" r="1.2" fill="#ffffff" opacity="0.74"/><circle cx="982.9" cy="1725.5" r="1.2" fill="#ffffff" opacity="0.55"/><circle cx="886.3" cy="1503.3" r="1.2" fill="#b7d9ff" opacity="0.76"/><circle cx="2900.1" cy="305.3" r="1.2" fill="#ddd1ff" opacity="0.92"/><circle cx="909.3" cy="308.8" r="1.2" fill="#b7d9ff" opacity="0.80"/><circle cx="193.5" cy="788.3" r="1.8" fill="#ffffff" opacity="0.82"/><circle cx="606.9" cy="2924.5" r="1.8" fill="#ffe5a6" opacity="0.73"/><circle cx="728.9" cy="1009.7" r="1.8" fill="#ffe5a6" opacity="0.96"/><circle cx="1674.6" cy="1955.2" r="1.8" fill="#ffe5a6" opacity="0.68"/><circle cx="1625.9" cy="602.0" r="1.8" fill="#ffffff" opacity="0.57"/><circle cx="1052.0" cy="1352.5" r="1.2" fill="#ffe5a6" opacity="0.82"/><circle cx="2929.6" cy="1286.0" r="2.5" fill="#b7d9ff" opacity="0.96"/><circle cx="1181.1" cy="142.8" r="1.2" fill="#ffffff" opacity="0.96"/><circle cx="1590.5" cy="649.7" r="1.8" fill="#ffffff" opacity="0.80"/><circle cx="2156.3" cy="1384.6" r="1.8" fill="#ffe5a6" opacity="0.72"/><circle cx="2278.7" cy="901.0" r="1.8" fill="#b7d9ff" opacity="0.78"/><circle cx="1748.5" cy="2565.4" r="1.2" fill="#b7d9ff" opacity="0.68"/><circle cx="2433.6" cy="1913.0" r="3.4" fill="#b7d9ff" opacity="0.90"/><circle cx="266.1" cy="2356.5" r="1.8" fill="#ddd1ff" opacity="0.65"/><circle cx="2244.2" cy="1055.6" r="1.2" fill="#ffffff" opacity="0.81"/><circle cx="81.8" cy="874.6" r="1.2" fill="#ffe5a6" opacity="0.70"/><circle cx="39.1" cy="1111.7" r="1.2" fill="#b7d9ff" opacity="0.56"/><circle cx="2542.0" cy="2124.9" r="1.8" fill="#b7d9ff" opacity="0.94"/><circle cx="245.9" cy="1597.7" r="1.2" fill="#ddd1ff" opacity="0.51"/><circle cx="1466.0" cy="2922.6" r="1.8" fill="#ffe5a6" opacity="0.97"/><circle cx="2127.1" cy="2095.1" r="1.8" fill="#ffe5a6" opacity="0.87"/><circle cx="2965.8" cy="2324.7" r="1.2" fill="#b7d9ff" opacity="0.63"/><circle cx="1685.4" cy="768.2" r="1.2" fill="#ffe5a6" opacity="0.77"/><circle cx="94.1" cy="1227.9" r="1.2" fill="#b7d9ff" opacity="0.51"/><circle cx="760.1" cy="2298.4" r="1.2" fill="#ffe5a6" opacity="0.76"/><circle cx="451.1" cy="199.9" r="1.2" fill="#ffffff" opacity="0.78"/><circle cx="1646.0" cy="2594.6" r="1.2" fill="#ddd1ff" opacity="0.58"/><circle cx="2042.6" cy="1080.5" r="1.8" fill="#b7d9ff" opacity="0.62"/><circle cx="2294.8" cy="1044.4" r="1.2" fill="#ffffff" opacity="0.50"/><circle cx="1025.8" cy="1738.5" r="2.5" fill="#ffe5a6" opacity="0.61"/><circle cx="1388.4" cy="2378.6" r="1.8" fill="#b7d9ff" opacity="0.60"/><circle cx="532.9" cy="149.3" r="1.2" fill="#ddd1ff" opacity="0.70"/><circle cx="1140.4" cy="42.7" r="2.5" fill="#ffffff" opacity="0.81"/><circle cx="1629.0" cy="2445.9" r="1.2" fill="#ffe5a6" opacity="0.79"/><circle cx="1566.3" cy="2049.2" r="2.5" fill="#ddd1ff" opacity="0.64"/><circle cx="1477.9" cy="62.4" r="1.8" fill="#ddd1ff" opacity="0.94"/><circle cx="2189.2" cy="2677.6" r="1.2" fill="#ddd1ff" opacity="0.78"/><circle cx="2795.1" cy="2371.2" r="1.2" fill="#ffffff" opacity="0.86"/><circle cx="2230.4" cy="2208.2" r="1.2" fill="#ffe5a6" opacity="0.72"/><circle cx="2397.5" cy="1922.9" r="1.2" fill="#ffffff" opacity="0.63"/><circle cx="1516.9" cy="343.0" r="1.2" fill="#b7d9ff" opacity="0.58"/><circle cx="581.1" cy="220.5" r="1.2" fill="#ffe5a6" opacity="0.50"/></svg>
