<svg xmlns="http://www.w3.org/2000/svg" viewBox="59 59 122 122" preserveAspectRatio="xMidYMid meet" opacity="1" aria-hidden="true" focusable="false" data-variant-artwork="0" data-variant-orientation="0" data-variant-palette="2" data-variant-pressing="3" data-variant-seam="0" data-variant-silhouette="2" data-theme-variant="artwork:0|orientation:0|palette:2|pressing:3|seam:0|silhouette:2"><g data-theme-part="record" transform="translate(0 0) translate(120 120) scale(0.5 0.5) translate(-120 -120)">
                    <rect x="12" y="12" width="216" height="216" fill="#e4dac4" />
                    <g data-theme-swap-detail="disc" data-visual-axis="pressing" data-visual-value="0"><circle cx="120" cy="120" r="98" fill="#d5b77f" stroke="#24282a" stroke-width="1.5" data-theme-record="disc" />

            <circle cx="120" cy="120" r="91" fill="none" stroke="#8e744f" stroke-width=".65" /><circle cx="120" cy="120" r="87" fill="none" stroke="#8e744f" stroke-width=".65" /><circle cx="120" cy="120" r="83" fill="none" stroke="#8e744f" stroke-width=".65" /><circle cx="120" cy="120" r="79" fill="none" stroke="#8e744f" stroke-width=".65" /><circle cx="120" cy="120" r="70" fill="none" stroke="#8e744f" stroke-width=".65" /><circle cx="120" cy="120" r="66" fill="none" stroke="#8e744f" stroke-width=".65" /><circle cx="120" cy="120" r="62" fill="none" stroke="#8e744f" stroke-width=".65" /><circle cx="120" cy="120" r="53" fill="none" stroke="#8e744f" stroke-width=".65" /><circle cx="120" cy="120" r="49" fill="none" stroke="#8e744f" stroke-width=".65" /><circle cx="120" cy="120" r="45" fill="none" stroke="#8e744f" stroke-width=".65" />
            <circle cx="120" cy="120" r="33" fill="#9a693c" />
            <circle cx="120" cy="120" r="3" fill="#191c1d" data-theme-spindle="true" />
            <circle cx="120" cy="120" r="7" fill="none" stroke="#f5edda" stroke-width=".6" /></g>
                    <path d="M12 12H108 Q108 21 120 21 Q132 21 132 12H228V228H12Z" fill="#faf5e9" stroke="#b7a991" stroke-width="1" data-theme-material="paper" />
                    <path d="M17 17V223H222" fill="none" stroke="#ded3bd" stroke-width=".7" />
                    <path d="M20 28H23V216H20Z" fill="#9a693c" /><path d="M30 217H210" fill="none" stroke="#9a693c" stroke-width=".7" /></g><g data-theme-part="sleeve" transform="translate(0 0) translate(120 120) scale(0.5 0.5) translate(-120 -120)"><g data-visual-axis="silhouette" data-visual-value="2"><g data-visual-axis="palette" data-visual-value="2"><rect x="3.3" y="3" width="234" height="234" fill="#adc1c0" stroke="#aa9172" stroke-width="1" /></g></g><g data-visual-axis="seam" data-visual-value="0"><path d="M8 13V231H228" fill="none" stroke="#79654f" stroke-width=".7" opacity=".45" /><path d="M99 3Q120 11 141 3" fill="none" stroke="#79654f" stroke-width="1" opacity=".55" /><g data-visual-axis="artwork" data-visual-value="0"><rect x="38" y="25" width="164" height="63" fill="#f6edda" /><path d="M38 88L88 35L133 88Z" fill="#9a693c" /><path d="M100 88L151 49L202 88Z" fill="#c58d62" /><circle cx="173" cy="39" r="11" fill="#c58d62" /></g></g></g><rect x="78" y="106" width="84" height="38" fill="none" data-theme-content-area="content" /></svg>
