<svg xmlns="http://www.w3.org/2000/svg" viewBox="0 0 240 240" preserveAspectRatio="xMidYMid meet" opacity="1" aria-hidden="true" focusable="false" data-variant-artwork="2" data-variant-orientation="6" data-variant-palette="4" data-variant-pressing="2" data-variant-seam="3" data-variant-silhouette="3" data-theme-variant="artwork:2|orientation:6|palette:4|pressing:2|seam:3|silhouette:3"><g data-theme-part="record">
                    <rect x="12" y="12" width="216" height="216" fill="#e4dac4" />
                    <g data-theme-swap-detail="disc" data-visual-axis="pressing" data-visual-value="12"><circle cx="120" cy="120" r="98" fill="#d5b77f" stroke="#24282a" stroke-width="1.5" data-theme-record="disc" />

            <circle cx="120" cy="120" r="91" fill="none" stroke="#8e744f" stroke-width=".65" /><circle cx="120" cy="120" r="86" fill="none" stroke="#8e744f" stroke-width=".65" /><circle cx="120" cy="120" r="81" fill="none" stroke="#8e744f" stroke-width=".65" /><circle cx="120" cy="120" r="75" fill="none" stroke="#8e744f" stroke-width=".65" /><circle cx="120" cy="120" r="70" fill="none" stroke="#8e744f" stroke-width=".65" /><circle cx="120" cy="120" r="65" fill="none" stroke="#8e744f" stroke-width=".65" /><circle cx="120" cy="120" r="58" fill="none" stroke="#8e744f" stroke-width=".65" /><circle cx="120" cy="120" r="53" fill="none" stroke="#8e744f" stroke-width=".65" /><circle cx="120" cy="120" r="48" fill="none" stroke="#8e744f" stroke-width=".65" /><circle cx="120" cy="120" r="43" fill="none" stroke="#8e744f" stroke-width=".65" />
            <circle cx="120" cy="120" r="33" fill="#34556a" />
            <circle cx="120" cy="120" r="3" fill="#191c1d" data-theme-spindle="true" />
            <circle cx="120" cy="120" r="7" fill="none" stroke="#f5edda" stroke-width=".6" /></g>
                    <path d="M12 12H108 Q108 21 120 21 Q132 21 132 12H228V228H12Z" fill="#eddfc2" stroke="#b7a991" stroke-width="1" data-theme-material="paper" />
                    <path d="M17 17V223H222" fill="none" stroke="#ded3bd" stroke-width=".7" />
                    <path d="M30 26H87V30H30Z M153 26H210V30H153Z M30 216H87V219H30Z M153 216H210V219H153Z" fill="#34556a" /></g><g data-theme-part="sleeve"><g data-visual-axis="silhouette" data-visual-value="3"><g data-visual-axis="palette" data-visual-value="4"><rect x="3.45" y="3" width="234" height="234" fill="#bcb4cc" stroke="#aa9172" stroke-width="1" /></g></g><g data-visual-axis="seam" data-visual-value="3"><path d="M11 13V231H228" fill="none" stroke="#79654f" stroke-width=".7" opacity=".45" /><path d="M99 3Q120 11 141 3" fill="none" stroke="#79654f" stroke-width="1" opacity=".55" /><g data-visual-axis="artwork" data-visual-value="2"><rect x="38" y="25" width="164" height="63" fill="#f6edda" /><path d="M38 88V66L64 47L80 62L111 31L140 66L164 51L202 78V88Z" fill="#34556a" /><circle cx="62" cy="39" r="9" fill="#c58d62" /><path d="M39 84H201V88H39Z" fill="#c58d62" /></g></g></g><rect x="28" y="40" width="184" height="36" fill="none" data-theme-title-area="title" /><rect x="41" y="103" width="158" height="80" fill="none" data-theme-carrier-title-area="title" /><rect x="28" y="84" width="184" height="125" fill="none" data-theme-content-area="content" /></svg>
