<svg xmlns="http://www.w3.org/2000/svg" viewBox="0 0 200 160" preserveAspectRatio="xMidYMid meet" aria-hidden="true" focusable="false" class="theme-object" data-variant-silhouette="4" data-variant-palette="4" data-variant-orientation="8" data-variant-notch="1" data-variant-vein="3" data-variant-accent="5" data-visual-axis="orientation" data-visual-value="8" data-visual-scope="self"><defs><mask id="mask" maskUnits="userSpaceOnUse" x="0" y="0" width="200" height="160"><rect width="200" height="160" fill="white"></rect><path data-visual-axis="notch" data-visual-value="1" data-visual-scope="self" d="M145 88L194 65L194 92Z" fill="black" transform="rotate(61 95 88)"></path></mask></defs><g data-visual-axis="palette" data-visual-value="4"><g mask="url(#mask)"><path data-visual-axis="silhouette" data-visual-value="4" data-visual-scope="self" d="M20 76C32 35 75 15 118 33C162 51 184 92 155 126C127 160 70 147 37 119C21 105 15 91 20 76Z" fill="rgb(148, 198, 110)" stroke="rgb(84, 137, 76)" stroke-width="5"></path><g data-visual-axis="vein" data-visual-value="3"><path class="theme-detail" d="M94 89L43 105M94 89L114 39M94 89L151 69" stroke="#d9ec9e" stroke-width="2.4" fill="none" stroke-linecap="round"></path></g></g><g data-visual-axis="accent" data-visual-value="5"><g class="theme-detail theme-detail-accent"><g transform="translate(132 54)"><circle r="10" fill="#f7e89c"></circle><circle r="5.5" fill="#fff8cf"></circle><circle r="2.5" fill="#d29b3f"></circle></g><path d="M44 111C58 121 75 123 88 117" fill="none" stroke="#d9ec9e" stroke-width="3" stroke-linecap="round"></path></g></g></g><rect data-theme-content-area="content" x="48" y="56" width="104" height="64" fill="none" stroke="none"></rect></svg>
