<svg viewBox="0 0 200 160" preserveAspectRatio="xMidYMid meet" aria-hidden="true" focusable="false" class="theme-object" data-variant-silhouette="2" data-variant-palette="1" data-variant-orientation="11" data-variant-density="2" data-variant-underside="0" data-variant-wisp="3" data-visual-axis="orientation" data-visual-value="11" data-visual-scope="self" xmlns="http://www.w3.org/2000/svg"><g data-visual-axis="palette" data-visual-value="1"><path data-visual-axis="silhouette" data-visual-value="2" data-visual-scope="self" d="M28 119C2 103 13 70 42 70C46 43 79 29 100 48C122 23 164 37 162 72C188 77 195 111 171 127H52C42 127 34 124 28 119Z" fill="rgb(255, 248, 223)" stroke="rgb(139, 164, 179)" stroke-width="5"></path><g data-visual-axis="density" data-visual-value="2"><circle class="theme-detail" cx="50" cy="70" r="14" fill="#fff8df"></circle><circle class="theme-detail" cx="139" cy="70" r="17" fill="#fff8df"></circle></g><g data-visual-axis="underside" data-visual-value="0"><path class="theme-detail" d="M43 111C78 124 130 125 164 104C153 128 111 136 75 130C57 127 46 120 43 111Z" fill="#d9dfdf" opacity="0.7"></path></g><g data-visual-axis="wisp" data-visual-value="3"><path class="theme-detail" d="M45 100C20 105 11 96 18 86M49 111C30 119 20 114 20 106" fill="none" stroke="#8ba4b3" stroke-width="3" stroke-linecap="round" opacity=".48"></path></g></g><rect data-theme-content-area="content" x="48" y="58" width="112" height="68" fill="none" stroke="none"></rect></svg>
