<svg xmlns="http://www.w3.org/2000/svg" viewBox="0 0 320 270" preserveAspectRatio="xMidYMid meet" opacity=".98"><g data-visual-axis="palette" data-visual-value="0"><g data-visual-axis="silhouette" data-visual-value="4"><path d="M32 231C10 222 4 205 18 185C-5 164 8 132 36 128C27 99 47 76 74 85C75 50 115 39 138 66C157 29 198 39 210 75C244 58 274 79 272 109C303 106 322 133 306 158C328 176 315 204 294 211C286 237 260 244 236 233C207 252 177 240 163 235C132 251 102 240 90 233Q57 245 32 231Z" fill="#fff8e9" /></g><g data-visual-axis="underside" data-visual-value="1"><path d="M17 196Q47 220 86 218Q126 233 157 218Q193 233 225 218Q270 229 309 192Q305 207 294 211C286 237 260 244 236 233C207 252 177 240 163 235C132 251 102 240 90 233Q57 245 32 231Q12 218 17 196Z" fill="#dce7ed" opacity=".45" /></g><g data-visual-axis="density" data-visual-value="2"><path d="M75 236Q137 240 199 236" fill="none" stroke="#eef5f8" stroke-width=".7" opacity=".4" /></g><g data-visual-axis="wisp" data-visual-value="4"><g data-visual-axis="orientation" data-visual-value="12" transform="rotate(10 160 232)"><path d="M64 235Q76 237 142 234" fill="none" stroke="#d4e3ec" stroke-width="1" opacity=".45" /></g></g></g><rect x="64" y="104" width="192" height="100" fill="none" data-theme-content-area="content" /></svg>
