<svg xmlns="http://www.w3.org/2000/svg" viewBox="0 0 320 270" preserveAspectRatio="xMidYMid meet" opacity=".98"><g data-visual-axis="palette" data-visual-value="1"><g data-visual-axis="silhouette" data-visual-value="0"><path d="M43 236C14 230 4 205 17 182C-2 156 10 116 40 110C29 74 58 49 87 58C88 25 122 10 149 28C173 9 210 30 208 58C243 43 277 64 274 99C310 102 327 134 307 164C327 192 304 230 279 234Q162 249 43 236Z" fill="#f5fbff" /></g><g data-visual-axis="underside" data-visual-value="3"><path d="M17 192Q36 220 77 222Q145 230 191 218Q244 230 305 197C301 225 280 237 254 239Q139 251 43 236C20 230 10 210 17 192Z" fill="#d4e3ee" opacity=".45" /></g><g data-visual-axis="density" data-visual-value="1"><path d="M66 236Q137 240 207 236" fill="none" stroke="#eef5f8" stroke-width=".7" opacity=".4" /></g><g data-visual-axis="wisp" data-visual-value="1"><g data-visual-axis="orientation" data-visual-value="4" transform="rotate(2 160 232)"><path d="M49 235Q76 237 118 234" fill="none" stroke="#d4e3ec" stroke-width="1" opacity=".45" /></g></g></g><rect x="40" y="78" width="240" height="148" fill="none" data-theme-content-area="content" /></svg>
